<?xml version="1.0" standalone="no"?>
<!DOCTYPE svg PUBLIC "-//W3C//DTD SVG 20010904//EN"
 "http://www.w3.org/TR/2001/REC-SVG-20010904/DTD/svg10.dtd">
<svg version="1.0" xmlns="http://www.w3.org/2000/svg"
 width="108.000000pt" height="159.000000pt" viewBox="0 0 108.000000 159.000000"
 preserveAspectRatio="xMidYMid meet">

<g transform="translate(0.000000,159.000000) scale(0.100000,-0.100000)"
fill="#000000" stroke="none">
<path d="M480 1516 c-53 -12 -91 -29 -137 -62 -14 -10 -23 -12 -23 -6 0 21
-31 0 -47 -32 -15 -28 -17 -29 -24 -11 -6 15 -8 10 -8 -20 -1 -22 -9 -53 -20
-68 -18 -28 -18 -28 -24 -6 -4 15 2 36 16 58 l21 36 -54 -45 c-64 -54 -104
-114 -120 -182 -13 -52 -9 -176 6 -187 10 -7 13 -81 3 -81 -3 0 -5 -10 -5 -23
1 -21 38 -67 54 -67 8 0 11 -40 3 -55 -9 -18 -10 -35 0 -35 5 0 9 -7 9 -15 0
-9 7 -18 15 -21 8 -4 13 -9 11 -13 -2 -3 10 -7 27 -8 21 0 37 -9 47 -24 8 -13
53 -71 99 -129 46 -58 95 -122 110 -142 14 -21 33 -38 41 -38 17 0 24 -37 11
-55 -5 -5 -11 -22 -15 -37 -3 -16 -13 -28 -21 -28 -9 0 -13 -10 -13 -29 1 -28
2 -29 17 -12 12 14 23 16 41 11 14 -5 18 -8 10 -9 -10 -1 -16 -11 -15 -28 0
-21 -5 -28 -20 -28 -11 0 -19 6 -17 13 1 8 -2 11 -8 7 -14 -9 -13 -58 2 -73 7
-7 44 -12 94 -12 74 0 84 2 98 22 19 27 21 94 4 101 -10 4 -10 6 0 6 21 2 13
31 -8 31 -11 0 -20 6 -20 13 0 6 -7 24 -14 39 -19 37 -16 68 6 68 11 0 42 34
80 86 84 116 148 194 160 194 5 0 6 -5 3 -10 -3 -6 -2 -10 4 -10 5 0 12 6 14
13 4 9 8 8 16 -3 8 -11 11 -12 11 -2 0 9 7 11 20 7 16 -5 19 -3 13 11 -5 13
-2 15 18 9 21 -7 22 -6 10 9 -11 14 -11 16 2 16 10 0 14 6 11 15 -4 10 0 15
12 15 18 1 18 2 2 13 -15 12 -15 14 0 24 16 11 15 12 -2 12 -12 1 -16 6 -12
16 3 9 0 15 -8 15 -9 0 -12 8 -8 25 2 14 8 22 13 19 5 -3 9 0 9 7 0 7 3 10 6
6 8 -8 33 16 27 26 -2 4 0 7 5 7 4 0 8 14 8 30 0 17 -3 30 -7 30 -3 0 0 30 8
68 29 132 4 247 -72 331 -41 45 -55 51 -55 22 0 -29 -26 -85 -34 -72 -4 6 -9
41 -11 78 -3 55 -8 71 -24 82 -18 11 -22 11 -27 -3 -9 -24 -22 -20 -39 14 -8
16 -19 29 -23 28 -4 -1 -25 7 -47 19 -23 12 -57 24 -76 28 -34 6 -36 5 -54
-34 -10 -22 -22 -38 -26 -35 -13 8 -11 58 3 72 14 14 10 14 -62 -2z m30 -11
c0 -4 -8 -20 -17 -38 -16 -30 -18 -31 -21 -9 -2 13 2 30 8 38 12 14 30 19 30
9z m90 -46 c0 -12 -10 -38 -22 -58 -22 -35 -23 -35 -27 -11 -3 25 26 90 41 90
4 0 8 -10 8 -21z m-89 -68 c-15 -24 -15 -24 -24 -3 -7 16 -5 29 9 49 l18 28 6
-25 c4 -15 0 -34 -9 -49z m-71 -14 c-19 -28 -21 -29 -15 -7 3 14 12 39 18 55
11 28 12 28 15 7 2 -12 -6 -37 -18 -55z m207 50 c8 -16 8 -29 0 -42 -10 -19
-10 -19 -18 0 -10 27 -11 65 -1 65 5 0 14 -10 19 -23z m-358 -41 c-29 -49 -34
-46 -9 5 12 23 24 39 26 36 3 -2 -5 -21 -17 -41z m536 -14 c-5 -14 -8 -14 -15
-2 -5 8 -4 22 3 34 10 19 11 20 15 3 2 -10 1 -26 -3 -35z m-209 -29 c-2 -3
-14 -2 -25 2 -20 6 -20 7 -4 38 l16 32 9 -34 c5 -18 7 -35 4 -38z m-150 1
c-30 -22 -38 -17 -20 12 13 18 20 22 28 14 8 -8 6 -15 -8 -26z m74 21 c0 -9
-6 -12 -15 -9 -8 4 -12 10 -9 15 8 14 24 10 24 -6z m133 -22 c6 -33 -5 -49
-21 -30 -12 14 -6 57 8 57 4 0 10 -12 13 -27z m-62 -29 c31 -15 53 -40 46 -52
-3 -4 -1 -14 5 -22 8 -12 8 -11 3 5 -5 16 -4 17 6 8 7 -7 14 -36 16 -65 12
-164 -190 -231 -289 -97 -31 41 -34 100 -9 152 41 86 134 115 222 71z m226 4
c-3 -8 -6 -5 -6 6 -1 11 2 17 5 13 3 -3 4 -12 1 -19z m-598 -60 c-10 -24 -14
-27 -21 -15 -5 10 -2 29 9 53 16 33 18 34 21 15 2 -13 -2 -36 -9 -53z m714
-16 c-6 -26 -23 -29 -23 -4 0 9 -3 35 -6 57 l-5 40 20 -36 c11 -21 18 -45 14
-57z m-783 -9 c-25 -47 -36 -53 -45 -24 -4 13 4 34 22 59 23 33 30 37 37 24 6
-11 2 -29 -14 -59z m750 -74 c-6 -11 -15 -17 -20 -14 -16 10 -23 91 -9 116 12
23 13 22 26 -29 10 -38 11 -58 3 -73z m-726 23 c-23 -40 -44 -53 -44 -28 0 27
44 86 55 75 7 -7 3 -22 -11 -47z m785 -24 c1 -15 -3 -29 -8 -32 -13 -8 -24 49
-15 76 7 22 7 22 15 3 4 -11 8 -32 8 -47z m-99 -9 c13 -46 6 -84 -10 -59 -10
15 -14 100 -5 100 2 0 9 -18 15 -41z m-763 9 c-3 -8 -6 -5 -6 6 -1 11 2 17 5
13 3 -3 4 -12 1 -19z m113 -5 c0 -16 -9 -39 -19 -52 -18 -24 -19 -24 -29 -5
-8 16 -6 27 10 52 25 39 38 41 38 5z m718 -77 c-10 -18 -11 -18 -25 7 -11 22
-11 32 -2 50 l12 22 13 -30 c8 -21 9 -36 2 -49z m-803 54 c3 -5 1 -19 -5 -31
-15 -27 -35 -10 -25 20 7 22 20 27 30 11z m26 -86 l-12 -27 -15 21 c-12 17
-12 25 -2 41 11 18 14 19 27 6 12 -12 12 -19 2 -41z m55 9 c-11 -11 -19 6 -11
24 8 17 8 17 12 0 3 -10 2 -21 -1 -24z m690 3 c9 -37 -6 -54 -21 -25 -13 23
-10 49 6 49 5 0 11 -11 15 -24z m60 -43 c-7 -17 -8 -17 -17 0 -6 9 -7 27 -3
40 l7 22 10 -22 c5 -12 6 -30 3 -40z m-289 15 c-3 -7 -5 -2 -5 12 0 14 2 19 5
13 2 -7 2 -19 0 -25z m-267 1 c0 -6 -4 -7 -10 -4 -5 3 -10 11 -10 16 0 6 5 7
10 4 6 -3 10 -11 10 -16z m-283 -8 c9 -15 9 -23 -2 -37 -11 -15 -14 -16 -15
-4 0 8 -3 25 -6 38 -8 27 7 29 23 3z m62 -13 c-8 -14 -14 -17 -22 -9 -7 7 -6
15 3 25 17 22 32 9 19 -16z m444 17 c-3 -9 -8 -14 -10 -11 -3 3 -2 9 2 15 9
16 15 13 8 -4z m241 -11 c7 -19 -1 -54 -14 -54 -12 0 -21 31 -15 51 8 23 21
24 29 3z m-426 -2 c12 -8 7 -42 -7 -42 -14 0 -29 23 -24 36 6 16 13 17 31 6z
m225 -55 c-10 -21 -10 -21 -26 9 -12 23 -13 34 -5 42 18 18 43 -24 31 -51z
m267 31 c0 -5 -7 -8 -15 -8 -15 0 -20 21 -8 33 7 7 23 -11 23 -25z m-334 11
c10 -17 -13 -36 -27 -22 -12 12 -4 33 11 33 5 0 12 -5 16 -11z m-379 -15 c8
-21 -13 -42 -28 -27 -13 13 -5 43 11 43 6 0 13 -7 17 -16z m303 6 c0 -5 -4
-10 -10 -10 -5 0 -10 5 -10 10 0 6 5 10 10 10 6 0 10 -4 10 -10z m-370 -21 c0
-5 -6 -9 -14 -9 -8 0 -16 -6 -19 -12 -2 -7 -8 -10 -11 -6 -4 3 1 15 11 26 18
19 33 20 33 1z m338 -6 c4 -28 -21 -48 -37 -29 -9 11 -9 19 1 35 15 25 32 22
36 -6z m-81 -2 c10 -15 9 -22 -2 -31 -12 -10 -15 -9 -15 3 0 8 -3 22 -6 31 -9
22 9 20 23 -3z m152 0 c14 -26 -10 -48 -29 -26 -13 16 -7 45 9 45 6 0 15 -9
20 -19z m68 -10 c10 -15 9 -20 -1 -24 -18 -7 -36 12 -29 29 7 19 16 18 30 -5z
m303 9 c0 -5 -2 -10 -4 -10 -3 0 -8 5 -11 10 -3 6 -1 10 4 10 6 0 11 -4 11
-10z m-66 -25 c3 -8 1 -15 -5 -15 -6 0 -9 -7 -5 -15 3 -9 0 -15 -8 -15 -8 0
-16 7 -20 15 -3 8 -1 15 4 15 6 0 10 7 10 15 0 8 4 15 9 15 5 0 11 -7 15 -15z
m-677 -9 c-4 -10 2 -16 21 -18 24 -3 29 -10 44 -65 12 -47 13 -65 5 -70 -7 -3
-9 -3 -6 1 4 4 -5 19 -20 34 -18 19 -34 26 -55 24 -24 -2 -27 1 -21 15 4 10 8
35 9 55 1 25 6 38 15 38 7 0 11 -6 8 -14z m325 -4 c-7 -2 -12 -10 -12 -18 0
-9 11 -14 35 -14 30 0 35 3 35 23 0 17 2 19 9 8 11 -16 3 -43 -15 -53 -7 -5
-10 -17 -7 -28 3 -11 1 -20 -4 -20 -5 0 -10 -7 -10 -15 0 -8 5 -15 11 -15 6 0
4 -5 -4 -10 -11 -7 -11 -10 -2 -10 7 0 10 -5 7 -10 -3 -6 1 -13 9 -16 9 -3 13
-10 10 -15 -3 -5 3 -6 12 -2 13 5 15 3 9 -7 -5 -8 -4 -11 2 -7 19 12 22 -20 7
-80 -38 -147 -30 -133 -79 -133 -49 0 -44 -7 -74 118 -24 99 -24 94 1 86 20
-6 21 -5 9 10 -11 14 -11 16 2 16 10 0 14 6 11 15 -4 10 0 15 12 15 18 1 18 2
2 13 -15 12 -15 14 0 24 16 11 15 12 -2 12 -15 1 -16 4 -6 16 10 13 9 15 -8
15 -15 0 -20 5 -16 15 5 11 2 13 -11 9 -13 -5 -16 -3 -13 7 3 8 14 14 26 14
12 0 22 5 23 10 2 23 21 45 32 38 8 -5 8 -8 -1 -11z m-252 -2 c0 -5 -2 -10 -4
-10 -3 0 -8 5 -11 10 -3 6 -1 10 4 10 6 0 11 -4 11 -10z m159 -20 c-6 -16 -13
-30 -15 -30 -6 0 1 33 9 48 14 21 16 13 6 -18z m341 20 c0 -5 -4 -10 -10 -10
-5 0 -10 5 -10 10 0 6 5 10 10 10 6 0 10 -4 10 -10z m-420 -10 c0 -5 -2 -10
-4 -10 -3 0 -8 5 -11 10 -3 6 -1 10 4 10 6 0 11 -4 11 -10z m330 0 c0 -5 -4
-10 -10 -10 -5 0 -10 5 -10 10 0 6 5 10 10 10 6 0 10 -4 10 -10z m251 -27 c-9
-16 -10 -15 -9 9 2 16 6 24 11 19 5 -5 5 -17 -2 -28z m-324 -7 c-4 -10 0 -12
14 -9 23 6 26 -15 3 -24 -8 -3 -13 -12 -10 -20 3 -8 1 -11 -4 -8 -6 3 -10 -3
-10 -15 0 -13 4 -19 11 -14 8 4 8 0 0 -15 -9 -17 -9 -20 3 -15 8 3 17 0 21 -6
11 -18 -2 -23 -27 -9 -12 7 -25 13 -28 12 -7 -2 -1 66 7 87 8 19 10 27 12 40
0 6 4 10 7 10 3 0 4 -6 1 -14z m266 -33 c-5 -12 -3 -14 8 -8 12 8 12 6 0 -9
-9 -11 -18 -13 -24 -7 -11 11 -2 41 12 41 6 0 7 -7 4 -17z m-423 -22 c13 -25
13 -61 -1 -61 -5 0 -8 -4 -4 -9 3 -5 1 -12 -4 -15 -5 -4 -9 6 -9 22 1 15 -4
37 -10 49 -11 20 -7 33 9 33 5 0 13 -9 19 -19z m452 -13 c-7 -7 -12 -8 -12 -2
0 14 12 26 19 19 2 -3 -1 -11 -7 -17z m-252 -9 c0 -11 -4 -17 -10 -14 -5 3
-10 13 -10 21 0 8 5 14 10 14 6 0 10 -9 10 -21z m235 -30 c-9 -14 -55 -30 -66
-23 -6 3 -5 11 2 20 13 16 74 20 64 3z m-680 -9 c3 -5 1 -10 -4 -10 -6 0 -11
5 -11 10 0 6 2 10 4 10 3 0 8 -4 11 -10z m90 -10 c3 -6 -4 -10 -17 -10 -18 0
-20 2 -8 10 19 12 18 12 25 0z m643 -34 c3 -20 0 -27 -10 -24 -7 3 -14 17 -16
32 -3 20 0 27 10 24 7 -3 14 -17 16 -32z m-108 -16 c0 -33 -15 -48 -24 -24
-12 31 -7 64 9 58 8 -4 15 -19 15 -34z m-528 20 c6 0 8 -3 5 -7 -4 -3 -1 -13
7 -22 7 -9 32 -55 54 -103 36 -78 39 -88 22 -88 -27 0 -62 35 -113 117 -35 55
-42 73 -31 77 8 3 14 9 13 13 -3 19 2 25 17 19 9 -3 21 -6 26 -6z m478 -40 c0
-5 -4 -10 -10 -10 -5 0 -10 -5 -10 -11 0 -6 6 -9 14 -6 25 10 15 -43 -18 -91
-20 -30 -41 -49 -60 -54 -17 -4 -31 -6 -31 -5 -1 1 18 44 42 95 26 56 49 92
58 92 8 0 15 -4 15 -10z m145 1 c7 -12 -34 -41 -57 -41 -25 0 -23 16 4 34 25
18 44 20 53 7z m-525 -201 c0 -5 -2 -10 -4 -10 -3 0 -8 5 -11 10 -3 6 -1 10 4
10 6 0 11 -4 11 -10z m280 1 c0 -6 -4 -13 -10 -16 -5 -3 -10 1 -10 9 0 9 5 16
10 16 6 0 10 -4 10 -9z m-220 -11 c0 -5 -4 -10 -10 -10 -5 0 -10 5 -10 10 0 6
5 10 10 10 6 0 10 -4 10 -10z m70 0 c0 -5 -4 -10 -10 -10 -5 0 -10 5 -10 10 0
6 5 10 10 10 6 0 10 -4 10 -10z m-40 -106 c0 -8 -5 -12 -10 -9 -6 4 -8 11 -5
16 9 14 15 11 15 -7z m60 7 c0 -6 -4 -13 -10 -16 -5 -3 -10 1 -10 9 0 9 5 16
10 16 6 0 10 -4 10 -9z m65 0 c3 -5 1 -12 -5 -16 -5 -3 -10 1 -10 9 0 18 6 21
15 7z m-45 -56 c0 -22 -4 -25 -35 -25 -31 0 -35 3 -35 25 0 22 4 25 35 25 31
0 35 -3 35 -25z m20 -54 c0 -5 3 -16 6 -25 5 -14 -4 -16 -61 -16 -57 0 -66 2
-61 16 3 9 6 20 6 25 0 5 25 9 55 9 30 0 55 -4 55 -9z m-23 -115 c-7 -21 -35
-30 -51 -17 -14 12 -14 16 0 44 l16 30 19 -24 c10 -13 17 -28 16 -33z m63 29
c19 -23 8 -50 -20 -50 -19 0 -26 6 -27 25 -2 23 -2 23 6 5 9 -18 10 -18 10 -2
1 10 -9 22 -21 27 -21 8 -20 9 8 9 17 1 37 -6 44 -14z"/>
<path d="M472 1280 c-20 -12 -30 -25 -26 -32 4 -7 3 -8 -4 -4 -28 17 -43 -92
-16 -118 8 -9 12 -16 8 -16 -20 0 34 -42 67 -51 31 -10 43 -9 76 7 21 11 37
25 36 32 -2 6 3 11 10 9 6 -1 11 6 11 15 -1 10 2 15 7 12 5 -3 9 15 9 39 0 31
-6 52 -21 68 -11 13 -17 17 -13 9 4 -9 3 -12 -2 -7 -5 5 -9 14 -9 20 0 15 -44
37 -75 37 -14 0 -40 -9 -58 -20z m95 -58 c23 -14 23 -59 0 -80 -38 -34 -90
-10 -84 40 4 41 49 63 84 40z"/>
<path d="M538 1193 c-20 -5 -22 -12 -8 -33 7 -11 10 -11 10 -2 0 7 4 11 8 8 4
-2 8 4 8 15 0 10 0 18 -1 18 0 -1 -8 -3 -17 -6z"/>
<path d="M673 1180 c0 -25 2 -35 4 -22 2 12 2 32 0 45 -2 12 -4 2 -4 -23z"/>
<path d="M400 1103 c0 -12 38 -48 45 -41 3 2 -6 15 -20 28 -14 13 -25 19 -25
13z"/>
</g>
</svg>
