<?xml version="1.0" standalone="no"?>
<!DOCTYPE svg PUBLIC "-//W3C//DTD SVG 20010904//EN"
 "http://www.w3.org/TR/2001/REC-SVG-20010904/DTD/svg10.dtd">
<svg version="1.0" xmlns="http://www.w3.org/2000/svg"
 width="108.000000pt" height="160.000000pt" viewBox="0 0 108.000000 160.000000"
 preserveAspectRatio="xMidYMid meet">

<g transform="translate(0.000000,160.000000) scale(0.100000,-0.100000)"
fill="#000000" stroke="none">
<path d="M437 1580 c-261 -33 -378 -150 -365 -363 9 -129 83 -327 184 -484 20
-32 31 -60 28 -70 -4 -11 -3 -14 3 -7 4 6 16 13 26 17 16 6 15 11 -13 52 -26
37 -29 49 -20 60 17 21 30 19 30 -4 0 -27 20 -38 32 -17 11 20 28 21 28 1 0
-20 20 -19 36 3 13 16 15 16 24 0 6 -9 17 -15 25 -12 8 4 12 10 9 15 -10 16 7
31 21 19 21 -17 36 -2 29 27 -6 22 -4 24 14 19 24 -8 39 11 23 27 -17 17 -13
27 9 27 25 0 26 18 3 36 -17 12 -17 14 1 27 18 13 14 43 -4 32 -13 -8 -24 15
-12 27 16 16 3 36 -19 31 -15 -4 -19 -1 -17 18 3 21 -1 24 -24 21 -22 -2 -28
1 -28 18 0 11 -7 20 -15 20 -8 0 -15 -4 -15 -10 0 -5 -7 -10 -15 -10 -8 0 -15
7 -15 15 0 8 -7 15 -15 15 -8 0 -15 -7 -15 -15 0 -8 -7 -15 -15 -15 -8 0 -15
5 -15 10 0 6 -7 10 -15 10 -8 0 -15 -9 -15 -21 0 -16 -4 -19 -20 -14 -28 9
-44 -3 -29 -21 9 -11 8 -15 -2 -18 -50 -15 -52 -17 -41 -28 17 -17 15 -38 -3
-32 -10 4 -15 0 -15 -14 0 -11 6 -22 13 -25 9 -4 10 -7 0 -18 -18 -18 -28 -6
-58 74 -27 73 -31 97 -15 97 6 0 10 -10 10 -21 0 -17 3 -19 14 -10 10 8 16 9
21 1 10 -16 25 -12 19 5 -4 9 0 15 10 15 9 0 16 5 16 10 0 6 -5 10 -11 10 -6
0 -8 9 -4 21 5 16 4 19 -5 14 -7 -4 -16 -1 -21 6 -8 12 -10 12 -18 0 -5 -7
-14 -10 -21 -6 -7 4 -10 1 -8 -10 2 -10 -2 -20 -9 -22 -18 -7 -28 42 -28 137
0 69 5 93 23 128 22 41 24 43 37 26 15 -21 11 -34 -11 -34 -20 0 -18 -26 4
-35 16 -6 16 -7 0 -19 -24 -18 -22 -32 4 -40 18 -4 20 -8 10 -18 -18 -18 -15
-40 6 -37 30 3 33 0 22 -20 -12 -23 5 -33 33 -19 13 7 17 5 17 -11 0 -29 21
-37 37 -15 13 18 14 18 19 -4 7 -26 29 -29 43 -5 7 14 12 15 25 4 17 -15 40
-5 32 14 -7 19 5 27 21 13 17 -13 28 -3 28 25 0 17 5 21 23 19 24 -4 30 16 10
36 -10 10 -8 14 10 18 25 7 29 29 7 38 -8 3 -15 10 -15 16 0 5 7 10 15 10 23
0 18 27 -7 34 -18 4 -20 8 -10 18 20 20 14 38 -13 38 -22 0 -25 3 -19 26 6 25
5 26 -24 19 -27 -6 -30 -4 -25 14 4 15 1 21 -10 21 -9 0 -19 -4 -22 -10 -9
-15 -25 -12 -25 5 0 8 -8 16 -17 16 -38 3 85 27 141 28 l59 1 -27 -21 c-34
-27 -32 -64 5 -92 24 -17 30 -18 55 -5 25 11 29 19 29 53 0 32 -5 42 -25 52
-22 11 -16 13 56 13 92 0 218 -28 271 -61 31 -20 33 -22 16 -35 -27 -20 -43
-17 -43 10 0 13 -7 27 -16 30 -21 8 -21 8 -27 -14 -3 -11 -12 -20 -21 -20 -9
0 -16 8 -16 20 0 13 -7 20 -20 20 -13 0 -20 -7 -20 -19 0 -27 -28 -34 -40 -11
-16 30 -49 10 -43 -25 4 -18 1 -25 -10 -25 -9 0 -19 5 -22 10 -3 6 -10 10 -15
10 -14 0 -21 -32 -9 -46 16 -19 2 -35 -25 -28 -28 7 -46 -25 -21 -38 22 -13
18 -36 -7 -40 -30 -4 -35 -34 -9 -43 25 -8 27 -24 4 -40 -22 -16 -10 -49 16
-40 23 7 35 -19 16 -35 -21 -18 -7 -41 24 -38 23 3 26 0 23 -25 -3 -30 21 -48
41 -28 19 19 39 13 35 -11 -2 -17 3 -24 20 -26 15 -2 22 2 22 12 0 23 31 20
37 -4 7 -26 43 -27 43 -1 0 28 21 37 36 16 16 -21 47 -13 42 12 -1 10 1 24 6
31 6 11 11 10 26 -3 15 -14 18 -14 30 0 10 12 10 18 0 30 -13 16 -6 35 15 35
24 0 27 -19 10 -73 -28 -86 -107 -247 -122 -247 -16 0 -17 17 0 23 9 4 9 8 -2
15 -7 5 -10 15 -7 21 4 6 0 11 -8 11 -9 0 -16 7 -16 16 0 10 -6 14 -15 10 -9
-3 -15 0 -15 10 0 11 -6 13 -20 9 -13 -4 -20 -2 -20 6 0 10 -3 10 -11 2 -6 -6
-18 -9 -25 -6 -8 3 -14 -1 -14 -10 0 -10 -7 -13 -20 -10 -16 4 -19 2 -14 -11
4 -11 1 -16 -10 -16 -10 0 -13 -6 -10 -15 4 -8 2 -15 -3 -15 -5 0 -10 -13 -10
-30 0 -16 5 -30 10 -30 5 0 7 -7 3 -15 -3 -9 0 -15 10 -15 10 0 14 -6 10 -15
-4 -10 1 -15 14 -15 11 0 20 -5 20 -11 0 -6 6 -9 14 -6 7 3 19 0 25 -6 8 -8
11 -8 11 2 0 8 7 10 20 6 14 -4 20 -2 20 8 0 10 -11 14 -41 13 -95 -2 -124
122 -36 159 81 34 152 -58 97 -128 -13 -17 -17 -28 -10 -32 8 -5 7 -14 -3 -29
-12 -17 -12 -23 -1 -33 10 -10 20 0 52 50 155 245 222 487 176 633 -34 109
-136 186 -286 214 -74 14 -246 20 -321 10z m137 -59 c7 -11 -22 -23 -35 -15
-5 3 -9 9 -9 15 0 12 37 12 44 0z m-264 -16 c0 -8 -4 -15 -9 -15 -13 0 -22 16
-14 24 11 11 23 6 23 -9z m214 0 c3 -9 -1 -18 -10 -22 -19 -7 -26 0 -18 21 8
20 20 21 28 1z m-278 -32 c-10 -10 -19 5 -10 18 6 11 8 11 12 0 2 -7 1 -15 -2
-18z m335 -16 c-7 -7 -12 -5 -17 7 -4 11 -1 21 7 27 17 11 26 -18 10 -34z
m-33 -5 c4 -14 -34 -16 -42 -3 -6 10 13 21 28 17 6 -1 12 -8 14 -14z m-338
-13 c0 -5 -9 -9 -20 -9 -22 0 -27 16 -7 23 15 5 27 -1 27 -14z m760 -39 c-19
-12 -35 3 -26 26 6 17 8 17 24 0 15 -15 15 -18 2 -26z m-104 15 l36 -15 -47
-54 c-64 -75 -76 -73 -158 30 -17 23 -17 23 10 38 36 20 114 20 159 1z m154
-77 c0 -12 -28 -9 -36 3 -3 6 0 15 7 20 13 7 28 -5 29 -23z m-667 0 c7 -21 -4
-38 -23 -38 -19 0 -34 25 -24 41 8 13 42 11 47 -3z m341 -29 c61 -54 60 -75
-3 -128 -27 -23 -51 -41 -54 -41 -3 0 -13 20 -22 45 -18 46 -15 107 6 146 14
26 20 24 73 -22z m264 16 c23 -50 7 -192 -20 -183 -28 10 -107 85 -108 104 0
13 19 36 51 62 29 23 55 42 59 42 4 0 12 -11 18 -25z m68 -73 c-4 -3 -12 0
-19 7 -9 9 -9 14 3 21 11 7 16 5 18 -6 2 -9 1 -18 -2 -22z m-219 2 c8 -22 -18
-37 -36 -20 -7 8 -10 19 -7 25 10 16 36 13 43 -5z m50 -107 l42 -52 -37 -17
c-47 -22 -108 -22 -150 1 l-33 17 43 52 c57 68 79 68 135 -1z m173 49 c0 -15
-14 -35 -21 -30 -15 9 -10 34 6 34 8 0 15 -2 15 -4z m-830 -87 c0 -12 -7 -19
-19 -19 -26 0 -36 17 -21 35 15 18 40 8 40 -16z m170 -56 c0 -30 -41 -63 -77
-63 -18 0 -33 3 -33 8 1 25 84 87 102 75 5 -2 8 -11 8 -20z m110 -13 c35 -32
35 -53 2 -58 -25 -4 -82 47 -82 72 0 27 45 19 80 -14z m-181 -123 c15 -28 12
-69 -6 -74 -16 -6 -43 49 -43 87 0 26 2 29 18 21 10 -5 24 -20 31 -34z m108
27 c8 -22 -18 -37 -36 -20 -7 8 -10 19 -7 25 10 16 36 13 43 -5z m123 -4 c0
-27 -25 -86 -40 -95 -19 -12 -43 20 -37 47 13 52 77 91 77 48z m-299 -63 c-1
-12 -15 -9 -19 4 -3 6 1 10 8 8 6 -3 11 -8 11 -12z m200 -37 c21 -17 22 -21 9
-30 -17 -11 -80 -13 -104 -4 -23 9 -20 29 7 42 34 16 62 14 88 -8z m-169 -15
c0 -5 -5 -11 -11 -13 -6 -2 -11 4 -11 13 0 9 5 15 11 13 6 -2 11 -8 11 -13z"/>
<path d="M637 1006 c-4 -9 -13 -13 -22 -10 -11 5 -14 2 -9 -11 4 -10 1 -21 -7
-26 -11 -7 -11 -9 4 -9 11 0 17 -8 17 -22 0 -17 3 -19 12 -10 8 8 15 9 25 1
10 -9 13 -8 13 5 0 9 7 16 15 16 8 0 15 5 15 10 0 6 -5 10 -11 10 -6 0 -8 9
-4 22 6 17 4 20 -9 15 -9 -4 -19 0 -24 10 -8 14 -10 14 -15 -1z m31 -39 c4
-21 -25 -34 -40 -19 -8 8 -8 16 2 27 16 19 34 15 38 -8z"/>
<path d="M872 978 c-36 -36 6 -91 46 -62 26 18 28 37 6 58 -19 19 -36 20 -52
4z"/>
<path d="M757 866 c-4 -9 -13 -13 -21 -10 -11 4 -13 0 -9 -15 3 -14 1 -21 -8
-21 -10 -1 -8 -4 4 -11 9 -5 17 -17 17 -26 0 -13 3 -14 12 -5 8 8 15 9 25 1
10 -9 13 -8 13 5 0 9 7 16 15 16 8 0 15 5 15 10 0 6 -5 10 -11 10 -6 0 -8 9
-4 22 6 17 4 20 -9 15 -9 -4 -19 0 -24 10 -8 14 -10 14 -15 -1z m33 -42 c0
-19 -28 -30 -42 -16 -8 8 -8 15 1 26 14 17 41 10 41 -10z"/>
<path d="M580 830 c0 -5 -7 -10 -16 -10 -10 0 -14 -6 -11 -14 3 -7 0 -19 -6
-25 -8 -8 -8 -11 1 -11 7 0 12 -10 12 -21 0 -19 2 -20 17 -8 13 11 17 11 20 2
3 -7 9 -13 15 -13 6 0 8 7 4 15 -3 9 0 15 9 15 17 0 20 16 5 25 -8 5 -7 12 2
23 11 13 10 15 -5 9 -11 -4 -20 -1 -23 8 -7 17 -24 20 -24 5z m27 -31 c15 -15
5 -39 -17 -39 -22 0 -32 24 -17 39 6 6 14 11 17 11 3 0 11 -5 17 -11z"/>
<path d="M668 703 c7 -3 16 -2 19 1 4 3 -2 6 -13 5 -11 0 -14 -3 -6 -6z"/>
<path d="M588 650 c-67 -11 -134 -35 -197 -70 -29 -16 -57 -27 -62 -24 -16 9
-10 -5 10 -23 19 -19 76 -256 65 -274 -3 -5 1 -9 9 -9 11 0 7 29 -18 139 -36
156 -39 146 43 157 l49 6 7 -98 c3 -55 9 -123 12 -151 5 -45 4 -53 -10 -53
-13 0 -15 -6 -10 -28 10 -43 18 -44 54 -7 l34 35 -26 0 c-25 0 -27 3 -33 73
-3 39 -7 108 -8 152 l-2 80 63 3 62 3 -1 -68 c0 -37 -4 -109 -7 -160 l-7 -92
-49 -50 c-35 -36 -52 -47 -58 -38 -4 7 -8 -10 -8 -38 l0 -49 73 69 72 70 -67
-70 c-36 -38 -68 -79 -70 -90 -3 -18 3 -20 62 -20 44 0 64 4 63 12 -3 15 15
171 22 194 5 14 1 19 -11 19 -15 0 -16 10 -11 107 4 58 7 126 7 151 l0 45 56
-6 c31 -3 61 -10 66 -15 5 -5 -4 -64 -21 -143 -19 -83 -26 -138 -21 -143 5 -5
13 -6 17 -1 5 4 3 10 -3 12 -14 5 43 264 62 278 7 5 22 33 33 61 l20 51 -61 7
c-75 7 -138 6 -200 -4z"/>
</g>
</svg>
