<?xml version="1.0" standalone="no"?>
<!DOCTYPE svg PUBLIC "-//W3C//DTD SVG 20010904//EN"
 "http://www.w3.org/TR/2001/REC-SVG-20010904/DTD/svg10.dtd">
<svg version="1.0" xmlns="http://www.w3.org/2000/svg"
 width="225.000000pt" height="225.000000pt" viewBox="0 0 225.000000 225.000000"
 preserveAspectRatio="xMidYMid meet">

<g transform="translate(0.000000,225.000000) scale(0.100000,-0.100000)"
fill="#000000" stroke="none">
<path d="M1012 2240 c-28 -12 -38 -34 -71 -157 l-26 -97 -70 -26 c-39 -14 -95
-38 -127 -52 l-56 -26 -90 54 c-136 82 -136 82 -232 -12 -44 -43 -83 -88 -86
-100 -6 -23 19 -78 79 -179 l35 -57 -26 -56 c-14 -32 -38 -88 -52 -127 l-26
-70 -97 -26 c-165 -44 -167 -47 -167 -184 0 -137 2 -140 167 -184 l97 -26 26
-70 c14 -39 38 -95 52 -127 l26 -56 -54 -90 c-82 -136 -82 -136 12 -232 43
-44 88 -83 100 -86 23 -6 69 15 167 73 66 40 65 40 192 -12 50 -20 99 -40 111
-45 16 -6 26 -28 43 -95 42 -169 49 -175 186 -175 137 0 140 2 184 167 l26 97
70 26 c39 14 95 38 127 52 l56 26 90 -54 c136 -82 136 -82 232 12 44 43 83 88
86 100 6 23 -15 69 -73 167 -40 66 -40 65 12 192 20 50 40 99 45 111 6 16 28
26 95 43 169 42 175 49 175 186 0 137 -6 144 -175 186 -67 17 -89 27 -95 43
-5 12 -25 62 -45 111 -52 127 -52 126 -12 192 58 98 79 144 73 167 -3 12 -42
57 -86 100 -96 94 -96 94 -232 12 l-90 -54 -56 26 c-32 14 -88 38 -127 52
l-70 26 -26 97 c-34 125 -43 145 -75 157 -32 12 -191 12 -222 0z m223 -182
c15 -62 31 -120 36 -128 4 -9 31 -22 61 -29 40 -10 198 -79 248 -108 3 -2 55
26 115 61 l109 64 32 -26 c17 -15 43 -41 57 -58 l26 -31 -65 -107 -65 -108 50
-102 c27 -55 55 -125 62 -154 7 -30 20 -57 29 -61 8 -5 66 -21 128 -36 l112
-27 0 -83 0 -83 -112 -27 c-62 -15 -119 -31 -127 -35 -7 -4 -26 -46 -41 -93
-15 -47 -44 -116 -64 -153 l-37 -67 44 -76 c25 -42 54 -92 66 -112 l21 -36
-56 -57 -57 -56 -36 21 c-20 12 -70 41 -112 66 l-76 44 -67 -37 c-37 -20 -106
-49 -153 -64 -47 -15 -89 -34 -93 -41 -4 -8 -20 -65 -35 -126 l-27 -113 -83 0
-83 0 -27 113 c-15 61 -31 119 -36 127 -4 9 -31 22 -61 29 -29 7 -99 35 -154
62 l-102 50 -107 -65 -108 -65 -32 27 c-18 15 -44 41 -58 58 l-26 31 65 107
65 108 -50 102 c-27 55 -55 125 -62 154 -7 30 -20 57 -29 61 -8 5 -66 21 -127
36 l-113 27 0 83 0 83 113 27 c61 15 119 31 128 36 8 4 22 34 29 66 8 32 36
101 62 153 l48 95 -44 75 c-24 41 -53 91 -65 111 l-21 36 56 57 57 56 36 -21
c20 -12 70 -41 111 -65 l75 -44 95 48 c52 26 121 54 153 62 32 7 62 21 66 29
5 9 21 67 36 129 l27 112 83 0 83 0 27 -112z"/>
<path d="M1045 1679 c-126 -19 -223 -67 -315 -160 -107 -106 -164 -245 -163
-396 1 -92 17 -161 59 -248 42 -89 96 -150 181 -209 195 -133 441 -133 636 1
286 194 323 607 76 854 -121 122 -303 183 -474 158z m155 -79 c197 -28 373
-207 401 -406 44 -312 -233 -592 -541 -546 -261 39 -447 285 -411 544 21 150
127 296 266 364 103 51 169 61 285 44z"/>
</g>
</svg>
